<?xml version="1.0" encoding="utf-8"?>
<!-- Generator: Adobe Illustrator 27.4.0, SVG Export Plug-In . SVG Version: 6.00 Build 0)  -->
<svg version="1.1" id="Layer_1" xmlns="http://www.w3.org/2000/svg" xmlns:xlink="http://www.w3.org/1999/xlink" x="0px" y="0px"
	 viewBox="0 0 1140 296" style="enable-background:new 0 0 1140 296;" xml:space="preserve">
<style type="text/css">
	.st0{fill:#FFFFFF;}
	.st1{fill:#226DB4;}
	.st2{fill:#E42527;}
</style>
<g>
	<g>
		<path d="M483.54,224.05c-7.14,21.82-27.7,33.2-49.91,33.2c-37.04,0-57.44-23.46-57.44-59.56c0-32.96,22.92-58.54,56.82-58.54
			c21.74,0,40.73,10.44,49.36,31L464,177.91c-4.87-12.63-16.25-21.42-30.06-21.42c-24.33,0-34.37,20.8-34.37,41.98
			c0,22.13,10.99,40.96,34.92,40.96c15.15,0,26.13-9.18,31.31-22.99L483.54,224.05z"/>
		<path d="M498.45,133.57h20.09v51.4c5.42-10.44,16.48-15.15,28.09-15.15c20.09,0,30.13,14.13,30.13,33.27v52.58h-20.25v-50.62
			c0-12.08-6.28-18.68-17.97-18.68c-12.87,0-20.01,7.93-20.01,19.93v49.36h-20.09V133.57z"/>
		<path d="M673.13,237.39c-6.98,14.83-22.05,19.85-37.51,19.85c-26.53,0-43.24-17.74-43.24-43.87c0-24.64,17.03-43.55,42.3-43.55
			c27.15,0,40.42,15.85,40.42,48.26h-62.23c0,14.2,8.24,24.56,23.54,24.56c9.1,0,16.64-3.69,21.03-12.24L673.13,237.39z
			 M655.08,204.9c-0.63-12.71-8.32-20.48-20.17-20.48c-12.63,0-20.01,8.87-21.74,20.48H655.08z"/>
		<path d="M767.06,231.9c-5.57,17.58-21.27,25.35-38.85,25.35c-26.68,0-42.61-17.89-42.61-43.87c0-24.96,17.81-43.55,43.08-43.55
			c17.03,0,31.7,7.14,37.9,23.62l-16.25,7.14c-3.37-9.42-11.54-14.83-21.66-14.83c-16.4,0-22.44,14.2-22.44,28.64
			c0,14.83,6.51,27.62,22.76,27.62c11.54,0,19.3-6.36,22.76-16.87L767.06,231.9z"/>
		<path d="M782.99,133.57h20.09v74.71l30.45-36.65h22.05l-33.35,38.53l35.86,45.52h-23.15l-31.86-40.96v40.96h-20.09V133.57z"/>
		<path d="M907.76,169.83c25.5,0,45.12,17.89,45.12,43.63c0,26.45-20.64,43.79-45.99,43.79c-25.58,0-46.14-17.74-46.14-43.4
			C860.75,187.48,882.49,169.83,907.76,169.83z M931.3,213.62c0-15.46-7.85-28.33-24.33-28.33c-16.95,0-23.7,13.5-23.7,28.88
			c0,14.91,7.93,27.62,24.17,27.62C924.24,241.79,931.3,228.29,931.3,213.62z"/>
		<path d="M1023.9,242.5c-5.26,10.2-16.09,14.75-27.7,14.75c-19.3,0-29.51-12.71-29.51-31.78v-53.83h20.09v51.4
			c0,11.46,5.26,18.52,16.95,18.52c12.56,0,20.17-8.08,20.17-20.09v-49.83h20.01v84.05h-20.01V242.5z"/>
		<path d="M1108.49,255.05c-4.32,1.26-8.79,2.04-13.81,2.04c-16.01,0-25.5-8.32-25.5-25.03v-45.67h-11.3v-14.75h11.3v-17.34
			l20.09-8.71v26.05h18.52v14.75h-18.52v43.87c0,6.59,2.83,10.67,10.2,10.67c2.83,0,5.96-0.63,9.03-1.65V255.05z"/>
	</g>
	<g>
		<path d="M382.23,104.43l36.97-53.42h-33.23V40.47h50.63v5.25l-36.07,53.42h35.03v10.54h-53.32V104.43z"/>
		<path d="M468.27,57.96c15.36,0,27.18,10.78,27.18,26.28c0,15.93-12.43,26.38-27.7,26.38c-15.41,0-27.8-10.68-27.8-26.14
			C439.95,68.59,453.04,57.96,468.27,57.96z M482.45,84.33c0-9.31-4.73-17.06-14.65-17.06c-10.21,0-14.28,8.13-14.28,17.4
			c0,8.98,4.77,16.64,14.56,16.64C478.19,101.3,482.45,93.17,482.45,84.33z"/>
		<path d="M504.29,36.12h12.1v30.96c3.26-6.29,9.93-9.12,16.92-9.12c12.1,0,18.15,8.51,18.15,20.04v31.67h-12.2V79.18
			c0-7.28-3.78-11.25-10.83-11.25c-7.75,0-12.05,4.77-12.05,12.01v29.73h-12.1V36.12z"/>
		<path d="M587.63,57.96c15.36,0,27.18,10.78,27.18,26.28c0,15.93-12.43,26.38-27.7,26.38c-15.41,0-27.8-10.68-27.8-26.14
			C559.31,68.59,572.41,57.96,587.63,57.96z M601.81,84.33c0-9.31-4.73-17.06-14.65-17.06c-10.21,0-14.28,8.13-14.28,17.4
			c0,8.98,4.77,16.64,14.56,16.64C597.56,101.3,601.81,93.17,601.81,84.33z"/>
	</g>
</g>
<g>
	<g>
		<path class="st1" d="M70.22,215.35c-4.71,0-8.5-3.8-8.5-8.5V39.82C61.71,19.53,78.24,3,98.54,3h148.37
			c20.3,0,36.82,16.53,36.82,36.82v62.37c0,4.71-3.8,8.5-8.5,8.5c-4.71,0-8.5-3.8-8.5-8.5V39.82c0-10.91-8.87-19.82-19.82-19.82
			H98.54c-10.91,0-19.82,8.87-19.82,19.82v167.03C78.72,211.56,74.92,215.35,70.22,215.35z"/>
	</g>
	<g>
		<path class="st1" d="M246.91,258.98h-41.64c-4.71,0-8.5-3.8-8.5-8.5c0-4.71,3.8-8.5,8.5-8.5h41.64c10.91,0,19.82-8.87,19.82-19.82
			v-66.42c0-4.71,3.8-8.5,8.5-8.5c4.71,0,8.5,3.8,8.5,8.5v66.42C283.73,242.46,267.21,258.98,246.91,258.98z"/>
	</g>
	<g>
		<path class="st1" d="M183.47,71.01h-62.28c-4.71,0-8.5-3.8-8.5-8.5s3.8-8.5,8.5-8.5h62.28c4.71,0,8.5,3.8,8.5,8.5
			S188.17,71.01,183.47,71.01z"/>
	</g>
	<g>
		<path class="st1" d="M166.49,104.94h-45.3c-4.71,0-8.5-3.8-8.5-8.5c0-4.71,3.8-8.5,8.5-8.5h45.3c4.71,0,8.5,3.8,8.5,8.5
			C174.99,101.14,171.16,104.94,166.49,104.94z"/>
	</g>
	<g>
		<path class="st2" d="M103.84,293c-5.24,0-10.21-2.41-13.44-6.61c-29.62-38.35-58.79-60.75-59.08-60.95
			c-2.1-1.59-3.35-4.08-3.35-6.72c-0.03-2.64,1.19-5.13,3.26-6.75c0.54-0.43,13.55-10.49,34.13-13.18
			c12.02-1.56,24.24-0.37,36.26,3.6c12.16,4,24.12,10.83,35.69,20.35c25.06-38.13,57.72-84.45,83.48-110.56
			c14.03-14.23,29.34-20.98,45.53-20.1c10.06,0.57,20.04,4.08,29.68,10.49c9.21,6.12,15.85,13.35,19.79,18.34
			c1.64,2.1,2.21,4.82,1.56,7.4s-2.49,4.68-4.96,5.7c-19.05,7.97-62.54,62.28-113.51,141.8c-6.8,10.6-18.4,16.95-31.01,16.95h-22
			c-4.71,0-8.5-3.8-8.5-8.5c0-4.71,3.8-8.5,8.5-8.5h22c6.78,0,13.01-3.4,16.67-9.13c11.11-17.32,33.17-50.94,56.16-81.59
			c23.1-30.7,41.27-50.8,55.17-60.86c-13.44-13.04-26.39-14.85-30.47-15.08c-11.08-0.62-22.03,4.45-32.49,15.05
			c-39.83,40.37-97.38,131.68-114.41,160.48c-2.86,4.85-7.94,7.97-13.58,8.31C104.55,292.97,104.21,293,103.84,293z M51.45,220.03
			c11.57,10.06,31.78,29.2,52.42,55.93c5.05-8.5,13.55-22.39,24.12-38.84c-10.38-8.82-21.01-15.05-31.66-18.57
			c-9.58-3.17-19.25-4.14-28.74-2.89C61.15,216.52,55.68,218.25,51.45,220.03z"/>
	</g>
</g>
</svg>
